<?xml version="1.0" encoding="utf-8"?><svg xmlns="http://www.w3.org/2000/svg" xmlns:xlink="http://www.w3.org/1999/xlink"><symbol viewBox="0 0 12 7" id="arrow-down" xmlns="http://www.w3.org/2000/svg"><path d="M12 1.756c-2.504 1.234-4.471 3.157-6 5.2-1.497-2.092-3.55-3.871-6-5.2V.03c2.373 1.293 4.446 2.852 6 4.779C7.598 2.89 9.638 1.256 12 0v1.756z"/></symbol><symbol viewBox="0 0 16 9" id="arrow-down-normal" xmlns="http://www.w3.org/2000/svg"><path fill-rule="evenodd" clip-rule="evenodd" d="M.47.47a.75.75 0 011.06 0L8 6.94 14.47.47a.75.75 0 111.06 1.06l-7 7a.75.75 0 01-1.06 0l-7-7a.75.75 0 010-1.06z"/></symbol><symbol viewBox="0 0 28 12" id="arrow-left" xmlns="http://www.w3.org/2000/svg"><path fill-rule="evenodd" clip-rule="evenodd" d="M1.484 6.433h26.204v-1H1.483v1z"/><path d="M5.202 0C3.968 2.504 2.045 4.471.002 6c2.092 1.497 3.871 3.55 5.2 6h1.226C5.135 9.627 3.576 7.554 1.65 6c1.918-1.598 3.553-3.638 4.809-6H5.202z"/></symbol><symbol viewBox="0 0 28 12" id="arrow-right" xmlns="http://www.w3.org/2000/svg"><path fill-rule="evenodd" clip-rule="evenodd" d="M26.203 6.433H0v-1h26.203v1z"/><path d="M22.485 0c1.235 2.504 3.158 4.471 5.201 6-2.093 1.497-3.872 3.55-5.2 6h-1.227c1.294-2.373 2.853-4.446 4.78-6-1.919-1.598-3.554-3.638-4.81-6h1.256z"/></symbol><symbol viewBox="0 0 21 37" id="arrow-tip-right" xmlns="http://www.w3.org/2000/svg"><path d="M4.333 0c3.806 7.72 9.736 13.787 16.037 18.5C13.915 23.115 8.43 29.444 4.332 37H.553c3.988-7.317 8.795-13.707 14.735-18.5C9.374 13.572 4.334 7.284.461 0h3.872z"/></symbol><symbol viewBox="0 0 21 26" id="basket" xmlns="http://www.w3.org/2000/svg"><path fill-rule="evenodd" clip-rule="evenodd" d="M18.714 6.603H2a1 1 0 00-1 1v15.564a1 1 0 001 1h16.714a1 1 0 001-1V7.603a1 1 0 00-1-1zM2 5.603a2 2 0 00-2 2v15.564a2 2 0 002 2h16.714a2 2 0 002-2V7.603a2 2 0 00-2-2H2z"/><path fill-rule="evenodd" clip-rule="evenodd" d="M6.256 9.698l.001.508a.5.5 0 11-1 0l-.001-.51c-.007-1.6-.016-3.714.492-5.486.286-.993.745-1.926 1.497-2.612C8.007.903 9.029.5 10.356.5c1.276 0 2.266.43 3.011 1.146.732.705 1.197 1.657 1.498 2.662.592 1.976.594 4.32.595 5.84v.055a.5.5 0 01-1 0c0-1.548-.003-3.773-.553-5.608-.273-.913-.67-1.686-1.233-2.228-.55-.53-1.289-.867-2.318-.867-1.11 0-1.88.33-2.437.837-.568.518-.954 1.26-1.21 2.15-.466 1.624-.459 3.588-.453 5.21z"/><path d="M6.905 11.357a1.15 1.15 0 11-2.301 0 1.15 1.15 0 012.301 0zm9.206 0a1.15 1.15 0 11-2.301 0 1.15 1.15 0 012.301 0z"/></symbol><symbol viewBox="0 0 10 7" id="check" xmlns="http://www.w3.org/2000/svg"><path fill-rule="evenodd" clip-rule="evenodd" d="M.293.293a1 1 0 011.414 0L5 3.586 8.293.293a1 1 0 011.414 1.414L5 6.414.293 1.707a1 1 0 010-1.414z"/></symbol><symbol viewBox="0 0 15 15" id="close" xmlns="http://www.w3.org/2000/svg"><path d="M15 1.415L2.272 14.142.858 12.729 13.586 0 15 1.415z"/><path d="M15 12.728L2.272 0 .858 1.414l12.728 12.728L15 12.728z"/></symbol><symbol viewBox="0 0 24 14" id="eye" xmlns="http://www.w3.org/2000/svg"><path fill-rule="evenodd" clip-rule="evenodd" d="M14.59.288c4.182.924 7.4 3.887 8.77 6.201a1 1 0 11-1.72 1.02c-1.129-1.905-3.912-4.48-7.48-5.268-3.462-.766-7.853.108-12.401 5.41A1 1 0 01.241 6.347C5.193.575 10.302-.66 14.591.288z"/><path fill-rule="evenodd" clip-rule="evenodd" d="M14.59 13.712c4.182-.924 7.4-3.887 8.77-6.201a1 1 0 10-1.72-1.02c-1.129 1.905-3.912 4.48-7.48 5.268-3.462.766-7.853-.108-12.401-5.41A1 1 0 00.241 7.653c4.952 5.773 10.061 7.009 14.35 6.06z"/><path fill-rule="evenodd" clip-rule="evenodd" d="M12 9a2 2 0 100-4 2 2 0 000 4zm0 2a4 4 0 100-8 4 4 0 000 8z"/></symbol><symbol viewBox="0 0 800 800" id="instagram" xmlns="http://www.w3.org/2000/svg"><path d="M614.567 697.9H185.433a83.333 83.333 0 01-83.333-83.333V185.433a83.333 83.333 0 0183.333-83.333h429.134a83.333 83.333 0 0183.333 83.333v429.134a83.333 83.333 0 01-83.333 83.333zM185.433 135.433a50 50 0 00-50 50v429.134a49.999 49.999 0 0050 50h429.134a49.999 49.999 0 0050-50V185.433a50 50 0 00-50-50H185.433z"/><path d="M400 553.133a153.172 153.172 0 01-141.392-94.675 153.165 153.165 0 01111.759-208.731A153.165 153.165 0 01553.333 400 153.334 153.334 0 01400 553.133zM400 280a119.834 119.834 0 10120 120 120.003 120.003 0 00-120-120zm173.333-16.5c19.791 0 35.834-16.043 35.834-35.833s-16.043-35.834-35.834-35.834c-19.79 0-35.833 16.044-35.833 35.834 0 19.79 16.043 35.833 35.833 35.833z"/></symbol><symbol viewBox="0 0 24 19" id="kits" xmlns="http://www.w3.org/2000/svg"><path d="M7.419 5.619l1.621.913M7.419 5.62a3.114 3.114 0 01-.813.915c-.33.25-.707.433-1.11.54a3.241 3.241 0 01-2.413-.306 3.144 3.144 0 01-.932-.8 3.062 3.062 0 01-.546-1.087 3.02 3.02 0 01.33-2.353 3.159 3.159 0 011.922-1.425 3.234 3.234 0 012.393.311 3.102 3.102 0 011.472 1.867c.22.788.11 1.628-.303 2.338zm1.621.913c.342.193.627.469.827.8.2.333.31.71.316 1.095.005.362.057.716.148 1.055M9.04 6.532l2.192 1.236m-.901 1.714c-.091.34-.143.694-.148 1.056a2.19 2.19 0 01-.316 1.094c-.2.332-.485.608-.827.8m1.29-2.95a4.424 4.424 0 01.902-1.714m0 0a4.57 4.57 0 012.183-1.421l5.62-1.677a4.86 4.86 0 012.617-.046l.848.222-8.226 4.636m-6.855 3.864l1.621-.914m-1.621.914a3.042 3.042 0 01.33 2.353 3.061 3.061 0 01-.546 1.088c-.254.323-.57.595-.932.799a3.218 3.218 0 01-2.413.306 3.196 3.196 0 01-1.11-.54c-.33-.25-.607-.56-.813-.915a3.026 3.026 0 01-.303-2.338 3.102 3.102 0 011.472-1.867 3.234 3.234 0 012.393-.311c.808.209 1.499.72 1.922 1.425zm1.621-.914l2.192-1.235m0 0a4.573 4.573 0 002.183 1.42l5.621 1.679a4.86 4.86 0 002.617.044l.847-.221-8.226-4.637m-3.042 1.715l3.042-1.715"/></symbol><symbol viewBox="0 0 27 24" id="like-fill" xmlns="http://www.w3.org/2000/svg"><path d="M13.2 23.702l-1.914-1.662C4.488 16.16 0 12.27 0 7.525 0 3.635 3.194.602 7.26.602c2.297 0 4.501 1.02 5.94 2.618C14.639 1.621 16.843.602 19.14.602c4.066 0 7.26 3.033 7.26 6.923 0 4.746-4.488 8.636-11.286 14.515L13.2 23.702z"/></symbol><symbol viewBox="0 0 23 20" id="like-outline" xmlns="http://www.w3.org/2000/svg"><path fill-rule="evenodd" clip-rule="evenodd" d="M9.933 17.94L11.5 19.3l1.566-1.36C18.627 13.13 22.3 9.949 22.3 6.066 22.3 2.883 19.686.4 16.36.4c-1.525 0-3 .55-4.132 1.457-.262.21-.506.44-.728.686a6.173 6.173 0 00-.728-.686A6.673 6.673 0 006.64.4C3.313.4.7 2.883.7 6.065c0 3.883 3.672 7.066 9.234 11.876zm1.566.036l.912-.792c2.802-2.422 5.044-4.367 6.598-6.18 1.544-1.801 2.29-3.342 2.29-4.939 0-2.585-2.12-4.665-4.94-4.665-1.594 0-3.128.713-4.117 1.812l-.743.826-.743-.826C9.767 2.113 8.233 1.4 6.639 1.4 3.82 1.4 1.7 3.48 1.7 6.065c0 1.597.746 3.138 2.29 4.94 1.555 1.813 3.797 3.757 6.598 6.18h.002l.91.791z"/></symbol><symbol viewBox="0 0 22 21" id="login" xmlns="http://www.w3.org/2000/svg"><path fill-rule="evenodd" clip-rule="evenodd" d="M7.113 2.11a5.5 5.5 0 117.778 7.78 5.5 5.5 0 01-7.778-7.78zm3.889-.61a4.5 4.5 0 100 9 4.5 4.5 0 000-9zm-.09 12.5c4.843 0 9.016 2.869 10.912 7h-1.112a11 11 0 00-9.8-6 11 11 0 00-9.8 6H0c1.896-4.131 6.069-7 10.912-7z"/></symbol><symbol viewBox="0 0 20 20" id="search" xmlns="http://www.w3.org/2000/svg"><path fill-rule="evenodd" clip-rule="evenodd" d="M8.569 16.137A7.569 7.569 0 108.569 1a7.569 7.569 0 000 15.137zm0 1A8.569 8.569 0 108.569 0a8.569 8.569 0 000 17.137z"/><path fill-rule="evenodd" clip-rule="evenodd" d="M14.146 14.146a.5.5 0 01.708 0l4.5 4.5a.5.5 0 01-.707.708l-4.5-4.5a.5.5 0 010-.708z"/></symbol><symbol viewBox="0 0 19 19" id="search-close" xmlns="http://www.w3.org/2000/svg"><path fill-rule="evenodd" clip-rule="evenodd" d="M.293.293a1 1 0 011.414 0l17 17a1 1 0 01-1.414 1.414l-17-17a1 1 0 010-1.414z"/><path fill-rule="evenodd" clip-rule="evenodd" d="M18.707.293a1 1 0 00-1.414 0l-17 17a1 1 0 101.414 1.414l17-17a1 1 0 000-1.414z"/></symbol><symbol viewBox="0 0 64 64" id="star-fill" xmlns="http://www.w3.org/2000/svg"><path d="M63.893 24.277a2.003 2.003 0 00-1.595-1.343l-19.674-3.006L33.809 1.15a2.002 2.002 0 00-3.622 0l-8.815 18.778-19.674 3.007a2.003 2.003 0 00-1.13 3.374l14.294 14.657-3.378 20.704a1.996 1.996 0 00.822 1.957 1.994 1.994 0 002.119.116l17.572-9.719 17.572 9.719a1.991 1.991 0 002.119-.116c.627-.44.946-1.201.822-1.957l-3.378-20.704 14.294-14.657a2 2 0 00.467-2.032z"/></symbol><symbol viewBox="0 0 64 64" id="star-outline" xmlns="http://www.w3.org/2000/svg"><path d="M32.001 2.484c.279 0 .463.509.463.509l8.806 18.759 20.729 3.167L47 40.299 50.541 62l-18.54-10.254L13.461 62l3.541-21.701-14.999-15.38 20.729-3.167L31.53 3.009s.192-.525.471-.525m0-2.477c-.775 0-1.48.448-1.811 1.15l-8.815 18.778-19.674 3.006a2.003 2.003 0 00-1.13 3.374l14.294 14.657-3.378 20.704a1.996 1.996 0 00.822 1.957 1.99 1.99 0 002.12.117l17.572-9.719 17.572 9.719a1.991 1.991 0 002.119-.116c.627-.44.946-1.201.822-1.957l-3.378-20.704L63.43 26.316a2 2 0 00-1.13-3.374l-19.674-3.006-8.814-18.779a2.003 2.003 0 00-1.811-1.15z"/></symbol><symbol viewBox="0 0 800 800" id="telegram" xmlns="http://www.w3.org/2000/svg"><path fill-rule="evenodd" clip-rule="evenodd" d="M711.629 154.727a16.669 16.669 0 014.628 15.611c-18.392 81.44-57.596 295.314-66.848 497.092a16.666 16.666 0 01-25.65 13.264C545.49 630.47 388.675 534.261 366.971 521.078a16.668 16.668 0 01-4.295-24.739c2.368-2.923 4.907-6.136 7.672-9.634 14.447-18.282 35.053-44.359 69.697-77.484 6.653-6.362 17.203-6.125 23.564.528 6.362 6.652 6.125 17.203-.528 23.564-30.069 28.752-48.682 51.505-62.673 69.131 42.225 25.861 146.914 90.293 217.205 134.812 10.371-176.118 41.27-355.802 60.312-447.343-143.979 41.19-392.985 144.073-533.79 205.295l121.912 46.015c54.831-35.827 176.111-110.876 276.74-159.187 8.298-3.984 18.254-.487 22.238 7.811 3.984 8.298.486 18.254-7.812 22.238-103.244 49.567-229.633 128.395-279.92 161.632a16.665 16.665 0 01-15.075 1.689l-168.103-63.45a16.665 16.665 0 01-.862-30.832c136.365-60.373 448.97-191.625 602.649-230.612a16.667 16.667 0 0115.727 4.215z"/></symbol><symbol viewBox="0 0 100 100" id="user" xmlns="http://www.w3.org/2000/svg"><path fill-rule="evenodd" clip-rule="evenodd" d="M26.872 29.167c0-13.232 10.726-23.959 23.958-23.959 13.232 0 23.958 10.727 23.958 23.959S64.062 53.125 50.83 53.125c-13.232 0-23.958-10.726-23.958-23.958zM50.83 11.458c-9.78 0-17.708 7.929-17.708 17.709S41.05 46.875 50.83 46.875c9.78 0 17.708-7.928 17.708-17.708 0-9.78-7.928-17.709-17.708-17.709zm-.935 47.919l.105-.002c18.74 0 34.406 13.215 40.463 31.299a3.125 3.125 0 11-5.926 1.985c-5.353-15.982-18.912-27.01-34.485-27.034a37.333 37.333 0 00-34.551 26.912 3.125 3.125 0 01-6.002-1.74 43.583 43.583 0 0140.396-31.42z"/></symbol><symbol viewBox="0 0 800 800" id="vkontakte" xmlns="http://www.w3.org/2000/svg"><path fill-rule="evenodd" clip-rule="evenodd" d="M87.256 222.592A16.667 16.667 0 01100 216.667h117.337a16.668 16.668 0 0116.447 13.969c4.826 29.425 20.696 86.239 58 139.591 5.274 7.546 3.435 17.936-4.109 23.21-7.544 5.276-17.935 3.436-23.209-4.107-35.624-50.95-53.356-104.525-60.901-139.33h-82.992c14.297 57.933 53.511 156.333 112.653 230.66 32.419 40.743 67.63 66.883 98.085 82.6 30.949 15.973 55.835 20.623 67.435 20.023.424-.02.847-.026 1.274-.016 5.396.133 11.956-1.347 16.83-5.317 4.236-3.45 9.38-10.523 9.38-26.417V500.84c0-9.763 3.826-19.627 11.996-25.953 8.627-6.684 19.904-7.64 29.99-2.967 10.71 4.963 22.954 11.307 30.43 15.333.424.23.837.474 1.237.737 37.903 24.863 74.42 64.797 97.57 94.45.313.4.617.61.817.713.196.097.313.107.37.107h83.856c.217 0 .317-.03.337-.033.023-.01.033-.014.05-.024.04-.03.187-.15.31-.423s.16-.557.13-.793c-.02-.17-.087-.507-.503-1.01-20.817-25.224-48.497-56.177-72.614-83.15-8.56-9.574-16.67-18.644-23.866-26.777-16.644-18.813-17.85-46.42-5.034-67.077C609.393 358.7 646.356 293.722 657.76 250h-68.077c-.043 0-.257 0-.653.28-.427.3-.987.887-1.404 1.831-23.75 53.594-73.81 119.742-110.24 152.976-10.19 9.293-23.89 10.776-34.986 4.356-10.377-6.003-16.17-17.48-16.17-29.663V250h-89.037c1.197 2.221 2.37 4.5 3.497 6.821 6.756 13.893 12.93 31.195 12.93 47.895 0 7.139.056 17.942.126 30.557.177 32.94.42 78.237-.133 102.904-.203 9.203-7.833 16.496-17.033 16.29-9.204-.207-16.497-7.834-16.291-17.037.542-24.167.303-68.353.126-101.2-.07-12.878-.13-24.013-.13-31.514 0-9.312-3.702-21.249-9.571-33.317-5.757-11.839-12.696-21.971-17.199-27.247a16.667 16.667 0 0112.679-27.485h136.702c9.207 0 16.667 7.462 16.667 16.666v142.77c32.89-31.673 76.837-90.669 97.587-137.496 5.44-12.276 17.52-21.94 32.533-21.94h68.287c20.683 0 37.89 19.084 32.176 41.236-12.743 49.419-52.723 118.844-80.516 163.64-5.577 8.99-4.57 20.36 1.676 27.42 6.94 7.844 14.864 16.707 23.297 26.137 24.227 27.093 52.647 58.877 73.927 84.66 18.26 22.127 3.893 56.833-26.034 56.833H598.64c-11.07 0-21-5.37-27.46-13.64-22.097-28.306-55.714-64.703-88.984-86.696-5.876-3.157-14.453-7.604-22.633-11.554v46.83c0 24.084-8.337 41.41-21.663 52.264-12.44 10.13-27.184 12.953-38.06 12.806-19.567.827-50.164-6.353-83.816-23.723-34.506-17.807-73.438-46.92-108.881-91.463-70.257-88.297-113.647-207.512-123.57-265.261a16.668 16.668 0 013.683-13.564zm372.39 277.451c.004.004-.003.024-.02.064l.02-.064z"/></symbol></svg>