<svg width="24" height="19" viewBox="0 0 24 19" fill="none" xmlns="http://www.w3.org/2000/svg">
<path d="M7.41884 5.61861L9.04 6.53249M7.41884 5.61861C7.21246 5.97297 6.9363 6.28398 6.60629 6.53373C6.27627 6.78348 5.8989 6.96704 5.49592 7.07384C5.09293 7.18065 4.67228 7.20858 4.25819 7.15604C3.8441 7.1035 3.44475 6.97152 3.08312 6.7677C2.7215 6.56388 2.40474 6.29225 2.15109 5.96844C1.89744 5.64463 1.71191 5.27504 1.60518 4.88096C1.49845 4.48687 1.47262 4.07606 1.52919 3.67219C1.58576 3.26832 1.7236 2.87936 1.93479 2.52771C2.35765 1.82358 3.04865 1.31131 3.857 1.10268C4.66535 0.894057 5.52541 1.00602 6.24951 1.41413C6.9736 1.82224 7.50294 2.49338 7.72202 3.28107C7.94109 4.06876 7.8321 4.90907 7.41884 5.61861ZM9.04 6.53249C9.38195 6.72503 9.66698 7.00076 9.8673 7.33281C10.0676 7.66487 10.1764 8.04192 10.183 8.42722C10.1883 8.78885 10.24 9.14328 10.3308 9.48225M9.04 6.53249L11.2321 7.76782M10.3308 9.48225C10.24 9.82225 10.1883 10.1756 10.183 10.5383C10.1762 10.9234 10.0674 11.3003 9.86704 11.6321C9.66673 11.964 9.3818 12.2396 9.04 12.432M10.3308 9.48225C10.4997 8.8535 10.8073 8.26837 11.2321 7.76782M11.2321 7.76782C11.8015 7.09586 12.5604 6.60184 13.4148 6.34704L19.035 4.6697C19.8859 4.41552 20.7929 4.39982 21.6525 4.62437L22.5 4.84589L14.2739 9.48225M7.41884 13.3459L9.04 12.432M7.41884 13.3459C7.63003 13.6975 7.76788 14.0865 7.82444 14.4904C7.88101 14.8942 7.85519 15.305 7.74845 15.6991C7.64172 16.0932 7.45619 16.4628 7.20254 16.7866C6.94889 17.1104 6.63214 17.3821 6.27051 17.5859C5.90888 17.7897 5.50953 17.9217 5.09544 17.9742C4.68135 18.0268 4.2607 17.9988 3.85772 17.892C3.45473 17.7852 3.07736 17.6017 2.74735 17.3519C2.41733 17.1022 2.14118 16.7911 1.93479 16.4368C1.52153 15.7272 1.41255 14.8869 1.63162 14.0992C1.85069 13.3116 2.38003 12.6404 3.10413 12.2323C3.82822 11.8242 4.68829 11.7122 5.49663 11.9209C6.30498 12.1295 6.99598 12.6418 7.41884 13.3459ZM9.04 12.432L11.2321 11.1967M11.2321 11.1967C11.8016 11.8686 12.5605 12.3626 13.4148 12.6175L19.0361 14.2958C19.8871 14.5497 20.794 14.565 21.6535 14.3401L22.5 14.1186L14.2739 9.48225M11.2321 11.1967L14.2739 9.48225" stroke="black" stroke-width="1.5" stroke-linecap="round" stroke-linejoin="round"/>
</svg>
