<svg width="26" height="20" viewBox="0 0 26 20" fill="none" xmlns="http://www.w3.org/2000/svg">
<path fill-rule="evenodd" clip-rule="evenodd" d="M7.86557 2.07315C7.86556 1.71972 7.77326 1.37216 7.59743 1.06348C7.42161 0.754802 7.1681 0.495253 6.86099 0.309485C6.55387 0.123717 6.20335 0.0178975 5.8427 0.00207812C5.48206 -0.0137413 5.12327 0.0609642 4.80042 0.219099L2.38024 1.4038C2.02862 1.57602 1.73291 1.84069 1.52624 2.16814C1.31957 2.4956 1.2101 2.87292 1.21009 3.25785V7.56067H0.907566C0.666864 7.56067 0.436021 7.65428 0.26582 7.82091C0.0956183 7.98755 0 8.21354 0 8.44919V15.5574C0 16.7356 0.478091 17.8656 1.3291 18.6988C2.18011 19.5319 3.33432 20 4.53783 20C5.74134 20 6.89555 19.5319 7.74656 18.6988C8.59757 17.8656 9.07566 16.7356 9.07566 15.5574V8.44919C9.07566 8.21354 8.98004 7.98755 8.80984 7.82091C8.63964 7.65428 8.40879 7.56067 8.16809 7.56067H7.86557V2.07315ZM1.81513 9.33772H7.26053V15.5574C7.26053 15.9074 7.1901 16.2541 7.05327 16.5775C6.91644 16.9009 6.71589 17.1947 6.46307 17.4422C6.21024 17.6897 5.91009 17.8861 5.57976 18.02C5.24943 18.154 4.89538 18.223 4.53783 18.223C4.18028 18.223 3.82623 18.154 3.4959 18.02C3.16556 17.8861 2.86542 17.6897 2.61259 17.4422C2.35977 17.1947 2.15921 16.9009 2.02238 16.5775C1.88556 16.2541 1.81513 15.9074 1.81513 15.5574V9.33772ZM6.05044 7.56067V2.07315C6.05054 2.0226 6.03742 1.97285 6.01233 1.92867C5.98724 1.88448 5.95101 1.84731 5.9071 1.82071C5.86319 1.79411 5.81305 1.77895 5.76146 1.77669C5.70988 1.77443 5.65855 1.78513 5.61239 1.80778L3.19221 2.99248C3.14193 3.01714 3.09967 3.05504 3.07017 3.10192C3.04068 3.14879 3.02511 3.20279 3.02522 3.25785V7.56067H6.05044ZM18.4538 0.452485C16.5264 0.452076 14.6715 1.17213 13.2681 2.46557C11.8647 3.759 11.0187 5.52821 10.9028 7.41179C10.787 9.29537 11.41 11.1512 12.6448 12.6001C13.8795 14.0491 15.6327 14.9819 17.5463 15.2079V18.223H14.8236C14.5829 18.223 14.352 18.3166 14.1818 18.4832C14.0116 18.6498 13.916 18.8758 13.916 19.1115C13.916 19.3471 14.0116 19.5731 14.1818 19.7398C14.352 19.9064 14.5829 20 14.8236 20H22.0841C22.3248 20 22.5556 19.9064 22.7258 19.7398C22.896 19.5731 22.9917 19.3471 22.9917 19.1115C22.9917 18.8758 22.896 18.6498 22.7258 18.4832C22.5556 18.3166 22.3248 18.223 22.0841 18.223H19.3614V15.2079C21.2713 14.9773 23.0196 14.0428 24.2504 12.5946C25.4812 11.1464 26.102 9.29343 25.9863 7.41288C25.8706 5.53233 25.0272 3.76564 23.6278 2.47249C22.2284 1.17935 20.3782 0.456993 18.4538 0.452485ZM18.4538 13.4842C19.2087 13.4842 19.9561 13.3386 20.6535 13.0558C21.3508 12.773 21.9845 12.3585 22.5182 11.836C23.052 11.3134 23.4754 10.6931 23.7642 10.0103C24.0531 9.32759 24.2018 8.59584 24.2018 7.85685C24.2018 7.11786 24.0531 6.3861 23.7642 5.70337C23.4754 5.02063 23.052 4.40028 22.5182 3.87773C21.9845 3.35519 21.3508 2.94068 20.6535 2.65789C19.9561 2.37509 19.2087 2.22953 18.4538 2.22953C16.9294 2.22953 15.4674 2.82241 14.3894 3.87773C13.3115 4.93306 12.7059 6.36439 12.7059 7.85685C12.7059 9.3493 13.3115 10.7806 14.3894 11.836C15.4674 12.8913 16.9294 13.4842 18.4538 13.4842Z" fill="black"/>
</svg>
