<svg width="26" height="25" viewBox="0 0 26 25" fill="none" xmlns="http://www.w3.org/2000/svg">
<path d="M22.9707 3.01258L22.6707 2.71258C20.9707 0.81258 18.4707 0.21258 18.4707 0.21258C15.4707 -0.68742 10.7707 1.31258 6.5727 5.41058C3.0727 8.71258 0.970703 12.7126 0.970703 15.7126C0.970703 16.1156 1.0727 16.5136 1.0727 16.9126C1.2717 18.9126 2.5727 21.0136 3.6697 22.0136C5.0727 23.4116 6.8697 24.1156 8.8697 24.1156C12.1697 24.1156 16.0727 22.2126 19.6697 18.8146C25.2717 13.3126 26.6707 6.81258 22.9707 3.01258ZM6.9707 17.7126C6.9707 16.4106 8.3687 13.7126 11.3687 10.7126C14.2717 7.81258 17.2717 7.01258 18.6697 6.71258C17.9707 8.61458 16.4707 10.9106 14.2717 13.1146C12.1697 15.1146 9.7717 16.7116 7.6697 17.5126C7.4707 17.6146 7.1697 17.6146 6.9707 17.7126ZM7.9707 6.81258C11.2707 3.51258 14.7707 1.91058 16.9707 1.91058C17.6707 1.91058 18.2707 2.11458 18.6707 2.51258C19.0727 2.91058 19.2707 3.71258 19.1707 4.61458C17.9707 4.71158 13.8687 5.41058 9.9707 9.31358C7.4707 11.8136 4.8687 15.4106 5.0727 17.9106C4.4707 17.9106 3.8687 17.7116 3.5727 17.4106C3.32552 17.1638 3.15232 16.8527 3.0727 16.5126C3.0727 16.5126 2.9707 16.0126 2.9707 15.7126C3.0727 13.2126 4.9707 9.71258 7.9707 6.81258ZM18.2707 17.3126C13.4707 22.1146 7.9707 23.4106 5.0727 20.6146C4.84723 20.4023 4.64539 20.1663 4.4707 19.9106C4.6707 20.0126 4.9707 20.0126 5.2707 20.0126C6.1707 20.0126 7.2707 19.8126 8.3687 19.4106C10.7717 18.5126 13.3687 16.8136 15.6697 14.5126C19.1697 11.0126 21.1697 7.01258 21.1697 4.11458L21.2717 4.21158L21.5717 4.41158C24.3687 7.31358 22.9707 12.7116 18.2717 17.3136L18.2707 17.3126Z" fill="black"/>
</svg>
