<svg width="26" height="26" viewBox="0 0 26 26" fill="none" xmlns="http://www.w3.org/2000/svg">
<g clip-path="url(#clip0_121_3445)">
<path fill-rule="evenodd" clip-rule="evenodd" d="M3.90647 3.73456L4.15563 4.23506L1.82647 7.49589C1.67756 7.70458 1.6075 7.95932 1.62872 8.2148C1.64994 8.47029 1.76109 8.70997 1.94238 8.89123L3.56738 10.5162C3.72817 10.6769 3.93542 10.7829 4.15978 10.8192C4.38414 10.8556 4.61426 10.8205 4.81755 10.7188L6.17605 10.0406L6.92572 11.0395L4.68322 18.2176C4.45361 18.0508 4.23637 17.8676 4.03322 17.6695C3.83398 17.4673 3.56335 17.3514 3.27955 17.3467C2.99574 17.342 2.72143 17.4489 2.51561 17.6443C2.30979 17.8398 2.1889 18.1082 2.17894 18.3919C2.16899 18.6756 2.27077 18.9518 2.46238 19.1612L3.15138 19.7733C3.58147 20.1146 4.21305 20.5587 5.04505 20.9996C6.71663 21.8836 9.18988 22.7503 12.4583 22.7503C15.7267 22.7503 18.2011 21.8836 19.8716 20.9996C20.5389 20.6496 21.1728 20.2391 21.7652 19.7733C21.9321 19.6401 22.4748 19.1428 22.4542 19.1612C22.6375 18.9685 22.7434 18.715 22.7518 18.4492C22.7603 18.1833 22.6706 17.9237 22.4999 17.7197C22.3293 17.5157 22.0895 17.3816 21.8264 17.343C21.5632 17.3044 21.2951 17.3639 21.073 17.5102L19.9571 11.93C20.5237 12.4597 21.1358 13.2787 21.7815 14.5679C21.8423 14.6996 21.929 14.8178 22.0364 14.9153C22.1437 15.0129 22.2696 15.0879 22.4065 15.1359C22.5434 15.1839 22.6886 15.2039 22.8334 15.1948C22.9782 15.1856 23.1197 15.1474 23.2494 15.0826C23.3792 15.0177 23.4946 14.9274 23.5888 14.817C23.683 14.7067 23.7541 14.5786 23.7979 14.4402C23.8416 14.3019 23.8571 14.1562 23.8435 14.0118C23.8298 13.8673 23.7873 13.7271 23.7185 13.5994C22.5745 11.3103 21.3503 10.006 19.9842 9.32348C18.9442 8.80348 17.7894 8.66698 16.64 8.66698H12.7378C12.6294 8.33898 12.5069 8.01585 12.3705 7.69848C11.9275 6.66498 11.1821 5.31731 9.97422 4.10939C8.71863 2.85381 7.42513 2.35114 6.4068 2.18106C5.82938 2.08573 5.18805 2.05539 4.61172 2.19948C4.45447 2.23895 4.30809 2.31322 4.18337 2.4168C4.05865 2.52038 3.95876 2.65063 3.89108 2.79795C3.8234 2.94527 3.78964 3.1059 3.79231 3.268C3.79497 3.43011 3.83398 3.58954 3.90647 3.73456ZM19.1468 18.9261L17.7027 11.7046C17.5575 10.981 16.8664 10.838 16.2315 10.8336H11.9166C11.3934 10.8336 10.9611 10.4566 10.8517 9.95289C10.7354 9.47309 10.5774 9.00439 10.3794 8.55214C10.01 7.68981 9.40113 6.59998 8.44238 5.64123C7.73497 4.93381 7.05138 4.58931 6.49672 4.42248C6.4808 4.61763 6.41229 4.80482 6.29847 4.96414L4.12313 8.00831L4.54672 8.43189L6.01572 7.69848C6.24256 7.58503 6.50202 7.55477 6.74888 7.61297C6.99574 7.67118 7.21436 7.81415 7.36663 8.01698L8.99163 10.1836C9.0945 10.321 9.16327 10.4808 9.19228 10.65C9.22129 10.8191 9.2097 10.9927 9.15847 11.1565L6.59747 19.3519C7.08605 19.5794 7.64505 19.8004 8.27447 19.99L9.8193 15.8701C9.89669 15.6636 10.0352 15.4857 10.2164 15.36C10.3976 15.2344 10.6128 15.1671 10.8333 15.167H15.1666C15.3871 15.1671 15.6023 15.2344 15.7835 15.36C15.9647 15.4857 16.1032 15.6636 16.1806 15.8701L17.602 19.6585C18.1978 19.4256 18.7135 19.1721 19.1468 18.9261ZM15.5187 20.276L14.4159 17.3336H11.584L10.4151 20.4504C11.0925 20.54 11.775 20.5845 12.4583 20.5836C13.5947 20.5836 14.6141 20.4645 15.5187 20.276Z" fill="black"/>
</g>
<defs>
<clipPath id="clip0_121_3445">
<rect width="26" height="26" fill="white" transform="translate(0 0.000305176)"/>
</clipPath>
</defs>
</svg>
