<svg width="20" height="20" viewBox="0 0 20 20" fill="none" xmlns="http://www.w3.org/2000/svg">
<path d="M5.97241 9.05476V5.02753C5.97241 3.95945 6.39671 2.9351 7.15196 2.17985C7.90721 1.4246 8.93155 1.00031 9.99964 1.00031C11.0677 1.00031 12.0921 1.4246 12.8473 2.17985C13.6026 2.9351 14.0269 3.95945 14.0269 5.02753V9.05476" stroke="black" stroke-width="2" stroke-linecap="round"/>
<path d="M1.63724 9.7273C1.78323 7.97445 1.85673 7.09853 2.43463 6.56593C3.01254 6.03433 3.89249 6.03433 5.65138 6.03433H14.3492C16.1071 6.03433 16.987 6.03433 17.5649 6.56593C18.1428 7.09752 18.2163 7.97445 18.3623 9.7273L18.8798 15.9353C18.9644 16.9552 19.0067 17.4656 18.7087 17.7908C18.4086 18.116 17.8972 18.116 16.8722 18.116H3.12732C2.10339 18.116 1.59093 18.116 1.29191 17.7908C0.992887 17.4656 1.03517 16.9552 1.12075 15.9353L1.63724 9.7273Z" stroke="black" stroke-width="2"/>
</svg>
