<svg width="26" height="24" viewBox="0 0 26 24" fill="none" xmlns="http://www.w3.org/2000/svg">
<path d="M19.6076 14.3647C19.2087 12.9138 18.3462 11.6342 17.1527 10.7223C15.9591 9.81047 14.5002 9.31665 13 9.31665C11.4997 9.31665 10.0409 9.81047 8.84732 10.7223C7.65373 11.6342 6.79131 12.9138 6.39235 14.3647L5.44163 17.8224C5.27093 18.4432 5.24546 19.0952 5.36721 19.7275C5.48896 20.3598 5.75464 20.9554 6.14353 21.4678C6.53243 21.9801 7.03402 22.3955 7.60921 22.6814C8.1844 22.9673 8.81764 23.116 9.45956 23.116H16.5404C17.1823 23.116 17.8156 22.9673 18.3908 22.6814C18.966 22.3955 19.4675 21.9801 19.8564 21.4678C20.2453 20.9554 20.511 20.3598 20.6328 19.7275C20.7545 19.0952 20.729 18.4432 20.5583 17.8224L19.6076 14.3647ZM18.5301 20.4542C18.2978 20.7628 17.997 21.0128 17.6517 21.1845C17.3063 21.3562 16.9258 21.4448 16.5404 21.4434H9.45956C9.0744 21.4434 8.69445 21.3541 8.34933 21.1826C8.00421 21.0111 7.70324 20.7619 7.4699 20.4544C7.23656 20.147 7.07716 19.7897 7.00411 19.4103C6.93106 19.0309 6.94634 18.6397 7.04877 18.2672L7.9995 14.8096C8.30142 13.7115 8.95408 12.7432 9.85736 12.0531C10.7606 11.363 11.8646 10.9893 13 10.9893C14.1353 10.9893 15.2393 11.363 16.1426 12.0531C17.0459 12.7432 17.6986 13.7115 18.0005 14.8096L18.9512 18.2672C19.0551 18.6395 19.0711 19.031 18.9981 19.4107C18.925 19.7903 18.7647 20.1477 18.5301 20.4544V20.4542ZM7.27415 10.4828C7.4192 9.57333 7.22685 8.59969 6.73231 7.74058C6.23777 6.88146 5.49336 6.22751 4.63595 5.89878C3.71773 5.54695 2.78117 5.60299 1.99789 6.05648C0.440769 6.95846 0.0309995 9.18146 1.08463 11.012C1.57901 11.8711 2.32347 12.5252 3.18089 12.8538C3.5607 13.0023 3.96442 13.0797 4.37206 13.0822C4.8799 13.0841 5.37915 12.9508 5.81894 12.696C6.60175 12.2425 7.11858 11.4565 7.27415 10.4828ZM5.62778 10.2184C5.55328 10.6852 5.32508 11.0506 4.98523 11.2474C4.64538 11.4443 4.21586 11.4598 3.77561 11.2912C3.27477 11.0993 2.83181 10.7031 2.52828 10.1756C1.94475 9.1616 2.08344 7.93847 2.8315 7.50505C3.01955 7.39798 3.23253 7.34283 3.44873 7.34521C3.65155 7.34731 3.85227 7.38658 4.04101 7.46109C4.54185 7.65308 4.98481 8.04923 5.28835 8.57669C5.59188 9.10415 5.71239 9.68733 5.62778 10.2184ZM7.45473 7.01768C8.0467 7.49245 8.7227 7.73969 9.40631 7.73964C9.61108 7.73957 9.81524 7.71747 10.0153 7.67372C11.7723 7.29053 12.8376 5.29841 12.39 3.23295C12.1801 2.26354 11.6696 1.41305 10.9527 0.83803C10.185 0.222286 9.27564 -0.0107868 8.39212 0.181986C6.63519 0.565127 5.5699 2.55725 6.01739 4.62271C6.2274 5.59217 6.73788 6.44265 7.45473 7.01768ZM8.7462 1.81648C8.82721 1.79895 8.90986 1.79019 8.99274 1.79034C9.30263 1.79034 9.62138 1.91197 9.91163 2.14479C10.3304 2.48062 10.632 2.99334 10.7609 3.58854C11.0089 4.733 10.5053 5.8554 9.66119 6.03949C9.27767 6.12313 8.86379 6.00667 8.49586 5.7115C8.07712 5.37561 7.77552 4.86289 7.64662 4.26774C7.39857 3.12297 7.90217 2.00057 8.7462 1.81648ZM24.0021 6.05648C23.2191 5.60299 22.2821 5.54695 21.364 5.89878C20.5066 6.22741 19.7621 6.88146 19.2678 7.74058C18.7734 8.59969 18.581 9.57354 18.7259 10.4828C18.8813 11.4565 19.398 12.2425 20.1811 12.696C20.6209 12.9508 21.1202 13.0841 21.628 13.0822C22.0357 13.0797 22.4394 13.0023 22.8192 12.8538C23.6766 12.5252 24.4211 11.8711 24.9155 11.012C25.969 9.18146 25.5592 6.95846 24.0021 6.05648ZM23.4717 10.1756C23.1682 10.7031 22.7252 11.0993 22.2244 11.2912C21.7843 11.4599 21.3547 11.4444 21.0149 11.2474C20.675 11.0505 20.447 10.6852 20.3723 10.2184C20.2876 9.68733 20.408 9.10436 20.7116 8.57716C21.0152 8.04996 21.4581 7.65355 21.959 7.46156C22.1477 7.38699 22.3484 7.34764 22.5512 7.34547C22.7674 7.34309 22.9804 7.39824 23.1685 7.50531C23.9165 7.93837 24.0554 9.16133 23.4717 10.1756ZM15.9847 7.67372C16.1847 7.71747 16.3889 7.73957 16.5937 7.73964C17.2772 7.73964 17.9535 7.49245 18.5452 7.01768C19.2621 6.44271 19.7726 5.59217 19.9826 4.62276C20.4301 2.5573 19.3648 0.565179 17.6078 0.182038C16.7244 -0.0106301 15.815 0.222286 15.0473 0.838082C14.3304 1.41305 13.8199 2.2636 13.6099 3.23295C13.1624 5.29841 14.2277 7.29053 15.9847 7.67372ZM15.2391 3.58828C15.368 2.99308 15.6696 2.48015 16.0883 2.14452C16.3786 1.91171 16.6973 1.79008 17.0072 1.79008C17.0901 1.78993 17.1728 1.79869 17.2538 1.81621C18.0978 2.00031 18.6014 3.12297 18.3535 4.26717C18.2245 4.86237 17.9228 5.3753 17.5042 5.71098C17.1363 6.00609 16.7227 6.12255 16.3389 6.03897C15.4947 5.85514 14.9911 4.73258 15.2391 3.58828Z" fill="black"/>
</svg>
