<svg width="22" height="22" viewBox="0 0 22 22" fill="none" xmlns="http://www.w3.org/2000/svg">
<path d="M11 0.116028C8.21523 0.116028 5.54451 1.22227 3.57538 3.19141C1.60625 5.16054 0.5 7.83125 0.5 10.616C0.5 13.4008 1.60625 16.0715 3.57538 18.0406C5.54451 20.0098 8.21523 21.116 11 21.116C13.7848 21.116 16.4555 20.0098 18.4246 18.0406C20.3938 16.0715 21.5 13.4008 21.5 10.616C21.5 7.83125 20.3938 5.16054 18.4246 3.19141C16.4555 1.22227 13.7848 0.116028 11 0.116028ZM8.816 1.68972C10.2518 1.33902 11.7509 1.33902 13.1866 1.68972L11 2.96415L8.816 1.68972ZM7.18325 2.25672L10.3464 4.10078V6.33203L6.71206 8.89403L4.66456 8.14984L3.84294 4.85284C4.73997 3.73979 5.88351 2.85188 7.18325 2.25672ZM2.86381 6.34515L3.37962 8.4189L1.85187 9.77603C1.96344 8.54622 2.31519 7.38728 2.86381 6.34515ZM1.85844 11.5243L4.25638 9.39803L6.2855 10.1343L7.65706 14.4525L6.716 15.8608H3.45575C2.55997 14.5762 2.00948 13.0829 1.85712 11.5243M4.56481 17.1733H6.60444L7.27381 19.016C6.26788 18.5687 5.35035 17.9446 4.56481 17.1733ZM8.86456 19.5542L7.79488 16.6063L8.72675 15.2111H13.2772L14.2104 16.6063L13.1407 19.5528C11.7351 19.8884 10.2702 19.8897 8.86456 19.5542ZM14.7327 19.0121L15.4021 17.172H17.4352C16.6513 17.9416 15.7361 18.5648 14.7327 19.0121ZM18.5443 15.8595H15.2919L14.3469 14.4485L15.6922 10.1343L17.7489 9.39409L20.1429 11.523C19.9905 13.0816 19.44 14.5749 18.5443 15.8595ZM20.1494 9.77209L18.6269 8.4189L19.1427 6.35565C19.6861 7.39253 20.0379 8.54753 20.1494 9.77209ZM18.1623 4.86071L17.342 8.1459L15.263 8.89403L11.6576 6.33203V4.10078L14.8194 2.2554C16.1214 2.85226 17.2664 3.74428 18.1636 4.86071M7.58487 9.88759L11 7.47521L14.3941 9.88628L13.1446 13.8973H8.85669L7.58487 9.88759Z" fill="black"/>
</svg>
