<svg width="225" height="50" viewBox="0 0 225 50" fill="none" xmlns="http://www.w3.org/2000/svg">
<path d="M222.309 33.9882C221.66 33.9882 221.115 33.8006 220.671 33.4254C220.228 33.0501 220.006 32.5725 220.006 31.9925V12.9566C220.006 12.4108 220.211 11.9503 220.62 11.575C221.063 11.1656 221.626 10.9609 222.309 10.9609C222.957 10.9609 223.486 11.1656 223.895 11.575C224.304 11.9503 224.509 12.4279 224.509 13.0078V31.9414C224.509 32.5213 224.287 33.016 223.844 33.4254C223.434 33.8006 222.923 33.9882 222.309 33.9882Z" fill="#111111"/>
<path d="M213.613 33.9882C212.965 33.9882 212.419 33.8006 211.976 33.4254C211.532 33.0501 211.311 32.5725 211.311 31.9925V12.9566C211.311 12.4108 211.515 11.9503 211.925 11.575C212.368 11.1656 212.931 10.9609 213.613 10.9609C214.261 10.9609 214.79 11.1656 215.2 11.575C215.609 11.9503 215.814 12.4279 215.814 13.0078V31.9414C215.814 32.5213 215.592 33.016 215.148 33.4254C214.739 33.8006 214.227 33.9882 213.613 33.9882Z" fill="#111111"/>
<path d="M198.973 33.9882C196.687 33.9882 194.828 33.2718 193.395 31.839C191.996 30.3721 191.297 28.4276 191.297 26.0055C191.297 23.5833 191.979 21.6729 193.344 20.2742C194.742 18.8414 196.568 18.125 198.819 18.125C200.423 18.125 201.821 18.6879 203.015 19.8137C203.152 19.4043 203.408 19.0631 203.783 18.7902C204.158 18.5173 204.602 18.3809 205.113 18.3809C205.796 18.3809 206.341 18.5855 206.751 18.9949C207.194 19.3702 207.416 19.8307 207.416 20.3766V31.9926C207.416 32.5725 207.194 33.0501 206.751 33.4254C206.341 33.8006 205.796 33.9882 205.113 33.9882C203.987 33.9882 203.288 33.4936 203.015 32.5043C201.924 33.4936 200.576 33.9882 198.973 33.9882ZM199.331 29.8433C200.423 29.8433 201.292 29.4851 201.941 28.7687C202.589 28.0182 202.913 27.0971 202.913 26.0055C202.913 24.8797 202.589 23.9756 201.941 23.2933C201.292 22.6111 200.423 22.2699 199.331 22.2699C198.273 22.2699 197.403 22.6111 196.721 23.2933C196.073 23.9756 195.749 24.8797 195.749 26.0055C195.749 27.0971 196.073 28.0182 196.721 28.7687C197.403 29.4851 198.273 29.8433 199.331 29.8433Z" fill="#111111"/>
<path d="M167.476 33.9882C166.793 33.9882 166.213 33.7324 165.736 33.2207C165.292 32.7089 165.122 32.1119 165.224 31.4297L167.373 15.0035C167.476 14.253 167.783 13.656 168.294 13.2125C168.806 12.7349 169.42 12.4961 170.137 12.4961C171.604 12.4961 172.559 13.1272 173.002 14.3895L176.482 24.4191C176.652 24.7603 176.823 24.9308 176.994 24.9308C177.232 24.9308 177.403 24.7603 177.505 24.4191L180.985 14.3895C181.429 13.1272 182.367 12.4961 183.799 12.4961C184.584 12.4961 185.215 12.7349 185.693 13.2125C186.205 13.656 186.512 14.253 186.614 15.0035L188.763 31.4297C188.865 32.1119 188.678 32.7089 188.2 33.2207C187.757 33.7324 187.194 33.9882 186.512 33.9882C185.898 33.9882 185.369 33.8006 184.925 33.4254C184.516 33.016 184.277 32.5043 184.209 31.8902L183.441 21.1953C183.407 20.7859 183.271 20.5812 183.032 20.5812C182.793 20.5812 182.623 20.7518 182.52 21.093L179.552 29.434C179.075 30.6962 178.222 31.3273 176.994 31.3273C176.516 31.3273 176.038 31.1567 175.561 30.8156C175.117 30.4744 174.759 30.031 174.486 29.4851L171.518 21.1953C171.416 20.8883 171.245 20.7348 171.007 20.7348C170.802 20.7348 170.665 20.9394 170.597 21.3488L169.778 31.8902C169.744 32.5043 169.505 33.016 169.062 33.4254C168.618 33.8006 168.09 33.9882 167.476 33.9882Z" fill="#111111"/>
<path d="M140.814 20.1719C140.814 19.4896 141.053 18.9779 141.531 18.6367C142.008 18.2956 142.554 18.125 143.168 18.125C143.646 18.125 144.055 18.2615 144.396 18.5344C144.772 18.7732 145.028 19.1143 145.164 19.5578L148.337 27.2847C148.507 27.7282 148.746 27.95 149.053 27.95C149.36 27.95 149.582 27.7282 149.718 27.2847L152.482 19.5578C152.652 19.0802 152.925 18.722 153.3 18.4832C153.71 18.2444 154.136 18.125 154.58 18.125C155.16 18.125 155.688 18.3126 156.166 18.6879C156.678 19.0631 156.934 19.5578 156.934 20.1719C156.934 20.513 156.865 20.8371 156.729 21.1441L148.746 39.566C148.507 40.0777 148.2 40.4359 147.825 40.6406C147.484 40.8794 147.126 40.9988 146.75 40.9988C146.136 40.9988 145.573 40.777 145.062 40.3336C144.584 39.9242 144.345 39.4295 144.345 38.8496C144.345 38.5425 144.414 38.2696 144.55 38.0308L147.313 33.1183C146.733 32.9478 146.273 32.5213 145.932 31.839L140.968 21.093C140.866 20.7859 140.814 20.4789 140.814 20.1719Z" fill="#111111"/>
<path d="M131.702 33.9883C130.201 33.9883 128.939 33.5277 127.915 32.6066V38.8496C127.915 39.4295 127.693 39.9071 127.25 40.2824C126.841 40.6918 126.329 40.8964 125.715 40.8964C125.067 40.8964 124.521 40.7088 124.077 40.3336C123.634 39.9583 123.412 39.4807 123.412 38.9007V20.3766C123.412 19.8307 123.617 19.3702 124.026 18.9949C124.47 18.5855 125.033 18.3809 125.715 18.3809C126.227 18.3809 126.67 18.5173 127.045 18.7902C127.421 19.0631 127.676 19.4043 127.813 19.8137C128.973 18.6879 130.32 18.125 131.855 18.125C134.107 18.125 135.898 18.8414 137.228 20.2742C138.593 21.6729 139.275 23.5833 139.275 26.0055C139.275 28.4276 138.593 30.3721 137.228 31.839C135.864 33.2718 134.022 33.9883 131.702 33.9883ZM131.344 29.8433C132.401 29.8433 133.237 29.4851 133.851 28.7687C134.499 28.0182 134.823 27.0971 134.823 26.0055C134.823 24.8797 134.499 23.9756 133.851 23.2933C133.237 22.6111 132.401 22.2699 131.344 22.2699C130.32 22.2699 129.484 22.6111 128.836 23.2933C128.222 23.9756 127.915 24.8797 127.915 26.0055C127.915 27.0971 128.222 28.0182 128.836 28.7687C129.484 29.4851 130.32 29.8433 131.344 29.8433Z" fill="#111111"/>
<path d="M112.761 33.9883C111.259 33.9883 109.997 33.5277 108.974 32.6066V38.8496C108.974 39.4295 108.752 39.9071 108.309 40.2824C107.899 40.6918 107.387 40.8964 106.773 40.8964C106.125 40.8964 105.579 40.7088 105.136 40.3336C104.692 39.9583 104.471 39.4807 104.471 38.9007V20.3766C104.471 19.8307 104.675 19.3702 105.085 18.9949C105.528 18.5855 106.091 18.3809 106.773 18.3809C107.285 18.3809 107.729 18.5173 108.104 18.7902C108.479 19.0631 108.735 19.4043 108.871 19.8137C110.031 18.6879 111.379 18.125 112.914 18.125C115.166 18.125 116.957 18.8414 118.287 20.2742C119.652 21.6729 120.334 23.5833 120.334 26.0055C120.334 28.4276 119.652 30.3721 118.287 31.839C116.923 33.2718 115.08 33.9883 112.761 33.9883ZM112.402 29.8433C113.46 29.8433 114.296 29.4851 114.91 28.7687C115.558 28.0182 115.882 27.0971 115.882 26.0055C115.882 24.8797 115.558 23.9756 114.91 23.2933C114.296 22.6111 113.46 22.2699 112.402 22.2699C111.379 22.2699 110.543 22.6111 109.895 23.2933C109.281 23.9756 108.974 24.8797 108.974 26.0055C108.974 27.0971 109.281 28.0182 109.895 28.7687C110.543 29.4851 111.379 29.8433 112.402 29.8433Z" fill="#111111"/>
<path d="M92.1836 33.9882C89.8979 33.9882 88.0387 33.2718 86.6059 31.839C85.2072 30.3721 84.5078 28.4276 84.5078 26.0055C84.5078 23.5833 85.1901 21.6729 86.5547 20.2742C87.9534 18.8414 89.7785 18.125 92.0301 18.125C93.6334 18.125 95.0321 18.6879 96.2262 19.8137C96.3626 19.4043 96.6185 19.0631 96.9937 18.7902C97.369 18.5173 97.8125 18.3809 98.3242 18.3809C99.0065 18.3809 99.5523 18.5855 99.9617 18.9949C100.405 19.3702 100.627 19.8307 100.627 20.3766V31.9926C100.627 32.5725 100.405 33.0501 99.9617 33.4254C99.5523 33.8006 99.0065 33.9882 98.3242 33.9882C97.1984 33.9882 96.4991 33.4936 96.2262 32.5043C95.1345 33.4936 93.787 33.9882 92.1836 33.9882ZM92.5418 29.8433C93.6334 29.8433 94.5034 29.4851 95.1515 28.7687C95.7997 28.0182 96.1238 27.0971 96.1238 26.0055C96.1238 24.8797 95.7997 23.9756 95.1515 23.2933C94.5034 22.6111 93.6334 22.2699 92.5418 22.2699C91.4842 22.2699 90.6143 22.6111 89.932 23.2933C89.2838 23.9756 88.9598 24.8797 88.9598 26.0055C88.9598 27.0971 89.2838 28.0182 89.932 28.7687C90.6143 29.4851 91.4842 29.8433 92.5418 29.8433Z" fill="#111111"/>
<path d="M65.3027 33.9882C64.6546 33.9882 64.1087 33.7836 63.6652 33.3742C63.2217 32.9648 63 32.4531 63 31.839V14.6965C63 14.0483 63.2217 13.5195 63.6652 13.1102C64.1087 12.7008 64.6546 12.4961 65.3027 12.4961C65.985 12.4961 66.5309 12.7008 66.9402 13.1102C67.3837 13.5195 67.6055 14.0483 67.6055 14.6965V19.609C67.6055 20.2913 67.9466 20.6324 68.6289 20.6324H75.5371C76.2194 20.6324 76.5605 20.2913 76.5605 19.609V14.6965C76.5605 14.0483 76.7652 13.5195 77.1746 13.1102C77.6181 12.7008 78.181 12.4961 78.8633 12.4961C79.5455 12.4961 80.0914 12.7008 80.5007 13.1102C80.9442 13.5195 81.166 14.0483 81.166 14.6965V31.839C81.166 32.4872 80.9442 33.016 80.5007 33.4254C80.0914 33.8006 79.5455 33.9882 78.8633 33.9882C78.2151 33.9882 77.6692 33.8006 77.2258 33.4254C76.7823 33.016 76.5605 32.4872 76.5605 31.839V25.8519C76.5605 25.1696 76.2194 24.8285 75.5371 24.8285H68.6289C67.9466 24.8285 67.6055 25.1696 67.6055 25.8519V31.839C67.6055 32.4872 67.3837 33.016 66.9402 33.4254C66.5309 33.8006 65.985 33.9882 65.3027 33.9882Z" fill="#111111"/>
<path d="M25 50C38.8071 50 50 38.8071 50 25C50 11.1929 38.8071 0 25 0C11.1929 0 0 11.1929 0 25C0 38.8071 11.1929 50 25 50Z" fill="#DE2525"/>
<path d="M27.3351 36.8717L30.2049 36.8726C30.2049 36.8726 30.3425 36.8745 30.4782 36.8615C35.5952 36.3737 34.4606 23.7245 32.5458 22.5469C30.9425 21.5611 23.8574 24.2791 24.276 20.6024C24.5073 18.5722 25.1738 11.199 21.6946 11.199C21.5169 11.199 21.4099 11.2185 21.3552 11.2333C21.1264 11.8816 21.1845 12.579 21.1845 13.2536C21.1845 16.8815 20.9743 20.5183 18.141 23.0855C16.4091 24.6547 14.0555 22.0569 15.7871 20.488C17.7619 18.6986 17.6791 15.7438 17.6791 13.2536C17.6791 10.3668 18.1675 7.69385 21.6943 7.69385C27.6034 7.69385 28.1967 14.8219 27.9311 18.9719C29.4218 18.9314 33.0945 18.7701 34.3815 19.5615C39.2318 22.5442 39.5162 40.7385 30.1057 40.3768H25.6632C24.638 40.3768 24.0624 39.702 23.9369 38.9449C23.8676 38.751 23.829 38.5315 23.829 38.2864V32.9841C23.829 31.03 22.2449 29.4462 20.2911 29.4462C18.3373 29.4462 16.7532 31.0303 16.7532 32.9841C16.7532 34.89 18.247 36.4398 20.1384 36.5193C22.4731 36.617 22.3265 40.1193 19.9915 40.0216C16.2252 39.8636 13.248 36.7709 13.248 32.9844C13.248 29.0944 16.4014 25.9411 20.2914 25.9411C24.1814 25.9411 27.3348 29.0947 27.3348 32.9844L27.3351 36.8717Z" fill="white"/>
</svg>
